<svg xmlns="http://www.w3.org/2000/svg" xmlns:xlink="http://www.w3.org/1999/xlink" width="824" height="206" viewBox="0 0 824 206">
  <defs>
    <clipPath id="clip-path">
      <rect id="Rectangle_3" data-name="Rectangle 3" width="824" height="206"/>
    </clipPath>
    <clipPath id="clip-path-2">
      <rect id="Rectangle_23" data-name="Rectangle 23" width="82.016" height="82.016" rx="41.008" transform="translate(0)" fill="#04427d"/>
    </clipPath>
    <filter id="Path_52">
      <feOffset dy="1" input="SourceAlpha"/>
      <feGaussianBlur stdDeviation="3" result="blur"/>
      <feFlood flood-opacity="0.161" result="color"/>
      <feComposite operator="out" in="SourceGraphic" in2="blur"/>
      <feComposite operator="in" in="color"/>
      <feComposite operator="in" in2="SourceGraphic"/>
    </filter>
    <filter id="Path_53">
      <feOffset dy="1" input="SourceAlpha"/>
      <feGaussianBlur stdDeviation="3" result="blur-2"/>
      <feFlood flood-opacity="0.161" result="color-2"/>
      <feComposite operator="out" in="SourceGraphic" in2="blur-2"/>
      <feComposite operator="in" in="color-2"/>
      <feComposite operator="in" in2="SourceGraphic"/>
    </filter>
    <filter id="Path_54">
      <feOffset dy="1" input="SourceAlpha"/>
      <feGaussianBlur stdDeviation="3" result="blur-3"/>
      <feFlood flood-opacity="0.161" result="color-3"/>
      <feComposite operator="out" in="SourceGraphic" in2="blur-3"/>
      <feComposite operator="in" in="color-3"/>
      <feComposite operator="in" in2="SourceGraphic"/>
    </filter>
    <filter id="Path_55">
      <feOffset dx="2" dy="3" input="SourceAlpha"/>
      <feGaussianBlur stdDeviation="5" result="blur-4"/>
      <feFlood flood-opacity="0.161" result="color-4"/>
      <feComposite operator="out" in="SourceGraphic" in2="blur-4"/>
      <feComposite operator="in" in="color-4"/>
      <feComposite operator="in" in2="SourceGraphic"/>
    </filter>
    <filter id="Path_56">
      <feOffset dx="2" dy="3" input="SourceAlpha"/>
      <feGaussianBlur stdDeviation="5" result="blur-5"/>
      <feFlood flood-opacity="0.161" result="color-5"/>
      <feComposite operator="out" in="SourceGraphic" in2="blur-5"/>
      <feComposite operator="in" in="color-5"/>
      <feComposite operator="in" in2="SourceGraphic"/>
    </filter>
  </defs>
  <g id="Web_1920_1" data-name="Web 1920 – 1" clip-path="url(#clip-path)">
    <g id="logo" transform="translate(10.999 15.91)">
      <g id="Icon_1_" transform="translate(0 0)">
        <g id="Orange_x5F_Shape_2_" transform="translate(44.98 9.387)">
          <g id="Group_1" data-name="Group 1">
            <path id="Path_1" data-name="Path 1" d="M338.085-.586s-7.9-18.3-34.9-33.7c0,0,21.4,23.7,3.7,57.292,0,0-12.2,23.1-42.294,24.9H239.1s-16.2,1.2-16.8,18.1c0,0,.8,17.2,17.4,18.1,16.6.8,48.994-1.6,54.793.6,0,0,20.2,2.1,19.9,28.7,0,0,29.7-20.8,34.9-56.693C349.283,56.706,354.883,26.21,338.085-.586Z" transform="translate(-222.3 34.282)" fill="#ff8727"/>
          </g>
        </g>
        <g id="Blue_x5F_Shape_2_" transform="translate(0 10.087)">
          <g id="Group_2" data-name="Group 2">
            <path id="Path_2" data-name="Path 2" d="M295.784,96c-4.1-4.5-45.394-1.9-45.394-1.9-34.1,2.2-37.3-22.4-37.3-22.4-4.1-26.3,21.2-33,21.2-33-40.695-32-11.2-72.291-11.2-72.291C164.4-1.786,178.9,62.405,178.9,62.405,191.4,117.1,242.991,128.5,242.991,128.5c40.595,7.5,57.892-6.9,57.892-6.9C311.182,106.6,295.784,96,295.784,96Z" transform="translate(-177.315 33.582)" fill="#0a6cc7"/>
          </g>
        </g>
        <path id="Path_3" data-name="Path 3" d="M256.9,93.818s26.3-1.8,35,.4h0a17.488,17.488,0,0,1,7.8,3.4s3.8,3.1,4.9,7.3c1.4,4.9.6,11.1-1.5,14.2,0,0-1.2,2.8-8.5,6.2h0a75.59,75.59,0,0,1-16.9,4.3h0l-21.1-35.8h.3" transform="translate(-177.325 43.652)" fill="#0a6cc7"/>
        <g id="Mask_Group_6" data-name="Mask Group 6" transform="translate(45.507)" clip-path="url(#clip-path-2)">
          <g id="Group_64" data-name="Group 64" transform="translate(0)">
            <g id="Group_63" data-name="Group 63">
              <g id="Group_62" data-name="Group 62" transform="translate(0 0)">
                <g id="Group_60" data-name="Group 60" transform="translate(0 0)">
                  <g id="Group_59" data-name="Group 59" transform="translate(0 0)">
                    <rect id="Rectangle_20" data-name="Rectangle 20" width="82.016" height="81.986" transform="translate(0 0)" fill="#04427d"/>
                    <g data-type="innerShadowGroup">
                      <path id="Path_52-2" data-name="Path 52" d="M-14464.219-11645.973s-21.747-16.391.882-34.631c-1.933,0-12.189,6.011-11.595,18.254-.3.816-.441,3.153-3.968.939-.046-.415,5.39-2.869-.935-8.793-1.848-1.688-9.719-12.522,9.631-13.444,1.231.089,6.039.129,8.779,1.817.237.135,2.771.533,1.965-.74-.572-.52-7.615-4.256-3.878-12.361.649-1.084,3.03-3.029,2.811-7.376.4-2.194,1.056-9.308,8.707-.483.836.967,16,13.567,8,17.163-1.144.913-3.384,2.276-4.034,2.146,0,.624,5.588-1.171,7.91-1.975.885-.078,4.527,0,4.527,0s-5.329,5.814-2.653,27.928c.371.891,1.739,3.979,6.771,3.865.857.229,4.059.685,3.373,7.535C-14435.593-11646.129-14464.219-11645.973-14464.219-11645.973Z" transform="translate(14491.934 11727.988)" fill="#0a6cc7"/>
                      <g transform="matrix(1, 0, 0, 1, -56.51, -15.91)" filter="url(#Path_52)">
                        <path id="Path_52-3" data-name="Path 52" d="M-14464.219-11645.973s-21.747-16.391.882-34.631c-1.933,0-12.189,6.011-11.595,18.254-.3.816-.441,3.153-3.968.939-.046-.415,5.39-2.869-.935-8.793-1.848-1.688-9.719-12.522,9.631-13.444,1.231.089,6.039.129,8.779,1.817.237.135,2.771.533,1.965-.74-.572-.52-7.615-4.256-3.878-12.361.649-1.084,3.03-3.029,2.811-7.376.4-2.194,1.056-9.308,8.707-.483.836.967,16,13.567,8,17.163-1.144.913-3.384,2.276-4.034,2.146,0,.624,5.588-1.171,7.91-1.975.885-.078,4.527,0,4.527,0s-5.329,5.814-2.653,27.928c.371.891,1.739,3.979,6.771,3.865.857.229,4.059.685,3.373,7.535C-14435.593-11646.129-14464.219-11645.973-14464.219-11645.973Z" transform="translate(14548.44 11743.9)" fill="#fff"/>
                      </g>
                    </g>
                    <g data-type="innerShadowGroup">
                      <path id="Path_53-2" data-name="Path 53" d="M-14312.778-11624.859s-4.238,4.887-2.992,14.081c.405.52,2.32-4.286,2.32-4.286s.916-8.219,4.435-9.795C-14311.982-11625.74-14312.778-11624.859-14312.778-11624.859Z" transform="translate(14370.307 11668.336)" fill="#0a6cc7"/>
                      <g transform="matrix(1, 0, 0, 1, -56.51, -15.91)" filter="url(#Path_53)">
                        <path id="Path_53-3" data-name="Path 53" d="M-14312.778-11624.859s-4.238,4.887-2.992,14.081c.405.52,2.32-4.286,2.32-4.286s.916-8.219,4.435-9.795C-14311.982-11625.74-14312.778-11624.859-14312.778-11624.859Z" transform="translate(14426.81 11684.25)" fill="#fff"/>
                      </g>
                    </g>
                    <g data-type="innerShadowGroup">
                      <path id="Path_54-2" data-name="Path 54" d="M-14307.41-11620.469s-6.142-.572,0-4.937a7.371,7.371,0,0,1,5.022,0s10,2.708,3.363,14.431c-1.056,1.361-4.224,5.487-8.622,4.916a1.616,1.616,0,0,0-2.727.922c1.012.176,4.486,1.142-.88,2.811-.4.923-1.055,2.5,1.76,4.128.439.965-.835,3.819-4.53-.22-1.012-2.284-3.947-9.238,4.53-19.715" transform="translate(14369.831 11668.794)" fill="#0a6cc7"/>
                      <g transform="matrix(1, 0, 0, 1, -56.51, -15.91)" filter="url(#Path_54)">
                        <path id="Path_54-3" data-name="Path 54" d="M-14307.41-11620.469s-6.142-.572,0-4.937a7.371,7.371,0,0,1,5.022,0s10,2.708,3.363,14.431c-1.056,1.361-4.224,5.487-8.622,4.916a1.616,1.616,0,0,0-2.727.922c1.012.176,4.486,1.142-.88,2.811-.4.923-1.055,2.5,1.76,4.128.439.965-.835,3.819-4.53-.22-1.012-2.284-3.947-9.238,4.53-19.715" transform="translate(14426.34 11684.7)" fill="#fff"/>
                      </g>
                    </g>
                    <g data-type="innerShadowGroup">
                      <path id="Path_55-2" data-name="Path 55" d="M-14293.51-11536.738s4.2,1.987,2.172,5.234a1.406,1.406,0,0,1-1.926,0s1.457-1.74-1.223-4.547C-14294.613-11537.258-14293.51-11536.738-14293.51-11536.738Z" transform="translate(14353.829 11603.912)" fill="#0a6cc7"/>
                      <g transform="matrix(1, 0, 0, 1, -56.51, -15.91)" filter="url(#Path_55)">
                        <path id="Path_55-3" data-name="Path 55" d="M-14293.51-11536.738s4.2,1.987,2.172,5.234a1.406,1.406,0,0,1-1.926,0s1.457-1.74-1.223-4.547C-14294.613-11537.258-14293.51-11536.738-14293.51-11536.738Z" transform="translate(14410.34 11619.82)" fill="#fff"/>
                      </g>
                    </g>
                    <g data-type="innerShadowGroup">
                      <path id="Path_56-2" data-name="Path 56" d="M-14295.7-11535.049s4.918,1.611,2.889,4.859c-.817.974-1.926,0-1.926,0s1.813-1.885-1.732-4.01C-14296.753-11535.111-14295.7-11535.049-14295.7-11535.049Z" transform="translate(14358.019 11601.515)" fill="#0a6cc7"/>
                      <g transform="matrix(1, 0, 0, 1, -56.51, -15.91)" filter="url(#Path_56)">
                        <path id="Path_56-3" data-name="Path 56" d="M-14295.7-11535.049s4.918,1.611,2.889,4.859c-.817.974-1.926,0-1.926,0s1.813-1.885-1.732-4.01C-14296.753-11535.111-14295.7-11535.049-14295.7-11535.049Z" transform="translate(14414.52 11617.42)" fill="#fff"/>
                      </g>
                    </g>
                    <path id="Path_6" data-name="Path 6" d="M265.042-11.617c0,1.543-.441,2.865-1.766,2.865S261.4-9.964,261.4-11.617s.662-2.865,1.876-2.865S265.042-13.27,265.042-11.617Z" transform="translate(-222.454 44.071)" fill="#fff"/>
                    <path id="Path_7" data-name="Path 7" d="M258.542-12.617c0,1.543-.441,2.865-1.766,2.865s-1.876-1.212-1.876-2.865.993-2.865,1.876-2.865C257.88-15.482,258.542-14.27,258.542-12.617Z" transform="translate(-223.128 43.969)" fill="#fff"/>
                    <ellipse id="Ellipse_8" data-name="Ellipse 8" cx="0.552" cy="0.992" rx="0.552" ry="0.992" transform="translate(33.98 30.911)" fill="#4e4e4e"/>
                    <ellipse id="Ellipse_9" data-name="Ellipse 9" cx="0.662" cy="1.102" rx="0.662" ry="1.102" transform="translate(40.27 31.352)" fill="#4e4e4e"/>
                    <g id="Group_65" data-name="Group 65" transform="translate(33.468 34.778)">
                      <path id="Subtraction_7" data-name="Subtraction 7" d="M2.575,2.414H1.284a1.694,1.694,0,0,1-1.1-.661A1.616,1.616,0,0,1,0,.933,2,2,0,0,1,.05.523,1.213,1.213,0,0,1,.173.2.325.325,0,0,1,.433,0,.256.256,0,0,1,.578.05.65.65,0,0,1,.732.21l.331.992a.2.2,0,0,0,.088.07.917.917,0,0,0,.406.071,2.793,2.793,0,0,0,.389-.031,2.049,2.049,0,0,1,.315-.022c.093,0,.185,0,.294.011l.019,1.113Z" transform="translate(0 0)" fill="#fff"/>
                      <path id="Subtraction_8" data-name="Subtraction 8" d="M1.055,2.414H0V1.29L.164,1.3h0l.228.013a2.791,2.791,0,0,0,.388.031.918.918,0,0,0,.406-.071A.2.2,0,0,0,1.276,1.2L1.607.21A.651.651,0,0,1,1.762.05.257.257,0,0,1,1.906,0a.325.325,0,0,1,.261.2,1.213,1.213,0,0,1,.122.326,2,2,0,0,1,.05.41,1.615,1.615,0,0,1-.18.82,1.694,1.694,0,0,1-1.1.661Z" transform="translate(2.255 0)" fill="#fff"/>
                    </g>
                    <g id="Group_56" data-name="Group 56" transform="translate(26.836 9.009)">
                      <path id="Path_10" data-name="Path 10" d="M251.278-26.4s1.485-3.46,2.97-.4a11.3,11.3,0,0,1-1.089,6.327c-1.287,2.274-1.188,3.163-2.277,4.547-.99,1.285-1.683-.593-1.782-1.087a30.946,30.946,0,0,1,.4-5.734,25.3,25.3,0,0,1,1.782-3.658Z" transform="translate(-249.091 35.604)" fill="#ff8727"/>
                      <g id="Layer_10" transform="translate(21.983 5.867)">
                        <path id="Path_11" data-name="Path 11" d="M271.3-28.892s5.545,3.065,7.525,4.943c1.881,1.681,3.565,3.361,4.654,4.449.99,1.186,1.188-2.175.891-2.966a13.328,13.328,0,0,0-5.941-6.327C274.865-30.474,271.1-29.584,271.3-28.892Z" transform="translate(-271.293 29.756)" fill="#ff8727"/>
                      </g>
                      <g id="Layer_9" transform="translate(24.178 11.053)">
                        <path id="Path_12" data-name="Path 12" d="M279.441-9.852a9.684,9.684,0,0,0,2.673-.89,4.524,4.524,0,0,0,.891-5.239,25.5,25.5,0,0,0-5.545-6.525c-1.683-1.186-2.772-1.878-2.772-1.878s-1.881-.791-.891,1.582c1.089,2.373,1.089,1.878,2.673,5.042S279.54-12.817,279.441-9.852Z" transform="translate(-273.509 24.51)" fill="#ff8727"/>
                      </g>
                      <g id="Layer_8" transform="translate(6.339 0)">
                        <path id="Path_13" data-name="Path 13" d="M276.59-8.793s1.089-1.582,0-5.141c0,0-6.238-13.444-9.6-16.509l-4.456-4.745a2.027,2.027,0,0,0-2.673,0l-3.664,3.163a1.719,1.719,0,0,0-.7,1.384,1.719,1.719,0,0,0,.7,1.384,64.947,64.947,0,0,0,7.03,8.9C263.322-20.458,273.719-9.485,276.59-8.793Z" transform="translate(-255.493 35.691)" fill="#ff8727"/>
                      </g>
                    </g>
                    <g id="Group_58" data-name="Group 58" transform="translate(31.272 37.192)">
                      <g id="Group_57" data-name="Group 57" transform="translate(0 0)">
                        <path id="Path_57" data-name="Path 57" d="M113.337,289.221a.446.446,0,0,0-.569.271,3.855,3.855,0,0,1-7.265,0,.446.446,0,0,0-.841.3,4.748,4.748,0,0,0,8.947,0A.445.445,0,0,0,113.337,289.221Z" transform="translate(-104.636 -289.196)" fill="#fff"/>
                      </g>
                    </g>
                  </g>
                </g>
                <g id="Group_61" data-name="Group 61" transform="translate(20.281 50.65)">
                  <path id="Path_58" data-name="Path 58" d="M-14097.658-9443.447s-8.416-1.3,0,1.012" transform="translate(14131.532 9449.927)" fill="#04427d"/>
                  <path id="Path_59" data-name="Path 59" d="M-14215.537-9468.047s-6.187-1.186-.164,1.023" transform="translate(14218.336 9468.364)" fill="#04427d"/>
                </g>
              </g>
            </g>
          </g>
        </g>
      </g>
      <g id="Textg_1_" transform="translate(192.86 36.814)">
        <g id="TechnologY_Pvt._Ltd." transform="translate(5.699 72.988)" opacity="0.702">
          <g id="Group_17" data-name="Group 17" transform="translate(0 0)">
            <path id="Path_14" data-name="Path 14" d="M375.9,68.55v-2.2h13.8v2.2h-5.5v18.6h-2.7V68.55Z" transform="translate(-375.9 -66.146)" fill="#111"/>
            <path id="Path_15" data-name="Path 15" d="M419.8,66.35v2.2h-8.3v7.1h7.4v2.1h-7.4v7.3h8.3v2.2H408.7V66.45h11.1Z" transform="translate(-375.904 -66.146)" fill="#111"/>
            <path id="Path_16" data-name="Path 16" d="M441.5,84.348a10.323,10.323,0,0,1-3.1-7.6,9.954,9.954,0,0,1,3.1-7.6,10.567,10.567,0,0,1,7.6-3,11.137,11.137,0,0,1,5.8,1.5,8.923,8.923,0,0,1,3.7,4.4h-3.3a6.477,6.477,0,0,0-6.2-3.5,7.457,7.457,0,0,0-5.6,2.2,9.01,9.01,0,0,0,0,11.8,8,8,0,0,0,9.3,1.4,6.266,6.266,0,0,0,2.5-2.6h3.3a9.464,9.464,0,0,1-3.7,4.4,11.137,11.137,0,0,1-5.8,1.5,9.8,9.8,0,0,1-7.6-2.9Z" transform="translate(-375.908 -66.146)" fill="#111"/>
            <path id="Path_17" data-name="Path 17" d="M491.6,66.35h2.8v20.8h-2.8v-9.4H481.1v9.4h-2.7V66.35h2.7v9.2h10.5Z" transform="translate(-375.913 -66.146)" fill="#111"/>
            <path id="Path_18" data-name="Path 18" d="M528.2,66.35h2.7v20.8h-2.7l-11-16.5v16.5h-2.7V66.35h2.7l11,16.5Z" transform="translate(-375.918 -66.146)" fill="#111"/>
            <path id="Path_19" data-name="Path 19" d="M560.5,87.347a10.566,10.566,0,0,1-7.6-3,10.322,10.322,0,0,1-3.1-7.6,9.954,9.954,0,0,1,3.1-7.6,10.566,10.566,0,0,1,7.6-3,10.175,10.175,0,0,1,7.5,3,10.323,10.323,0,0,1,3.1,7.6,9.953,9.953,0,0,1-3.1,7.6,10.175,10.175,0,0,1-7.5,3Zm5.6-4.7a9.01,9.01,0,0,0,0-11.8,7.457,7.457,0,0,0-5.6-2.2,7.308,7.308,0,0,0-5.6,2.2,9.01,9.01,0,0,0,0,11.8,7.7,7.7,0,0,0,5.6,2.3,7.536,7.536,0,0,0,5.6-2.3Z" transform="translate(-375.923 -66.146)" fill="#111"/>
            <path id="Path_20" data-name="Path 20" d="M590,66.35h2.7v18.7H600v2.1H589.9V66.35Z" transform="translate(-375.928 -66.146)" fill="#111"/>
            <path id="Path_21" data-name="Path 21" d="M628,87.347a10.566,10.566,0,0,1-7.6-3,10.322,10.322,0,0,1-3.1-7.6,9.953,9.953,0,0,1,3.1-7.6,10.566,10.566,0,0,1,7.6-3,10.175,10.175,0,0,1,7.5,3,10.323,10.323,0,0,1,3.1,7.6,9.954,9.954,0,0,1-3.1,7.6,10.175,10.175,0,0,1-7.5,3Zm5.6-4.7a9.01,9.01,0,0,0,0-11.8,7.457,7.457,0,0,0-5.6-2.2,7.308,7.308,0,0,0-5.6,2.2,9.01,9.01,0,0,0,0,11.8,7.7,7.7,0,0,0,5.6,2.3,7.536,7.536,0,0,0,5.6-2.3Z" transform="translate(-375.932 -66.146)" fill="#111"/>
            <path id="Path_22" data-name="Path 22" d="M666.9,87.347a10.415,10.415,0,0,1-10.5-10.6,9.954,9.954,0,0,1,3.1-7.6,10.567,10.567,0,0,1,7.6-3,11.137,11.137,0,0,1,5.8,1.5,9.656,9.656,0,0,1,3.8,4.4h-3.4a6.477,6.477,0,0,0-6.2-3.5,7.457,7.457,0,0,0-5.6,2.2,9.01,9.01,0,0,0,0,11.8,7.471,7.471,0,0,0,5.5,2.3,7.184,7.184,0,0,0,5.3-1.9,7.811,7.811,0,0,0,2.3-5H666v-2.2h11.5v2.2a10.485,10.485,0,0,1-3.3,6.7A10.3,10.3,0,0,1,666.9,87.347Z" transform="translate(-375.937 -66.146)" fill="#111"/>
            <path id="Path_23" data-name="Path 23" d="M704.2,87.147h-2.7v-7.9l-6.8-12.9h3l5.1,10.4,5.1-10.4h3l-6.8,12.9v7.9Z" transform="translate(-375.942 -66.146)" fill="#111"/>
            <path id="Path_24" data-name="Path 24" d="M763.4,68.05a5.806,5.806,0,0,1,1.9,4.4,5.879,5.879,0,0,1-1.8,4.4c-1.2,1.2-3,1.7-5.4,1.7h-4v8.6h-2.8V66.35h6.8a7.659,7.659,0,0,1,5.3,1.7Zm-9.4,8.4h4a4.934,4.934,0,0,0,3.4-1,4,4,0,0,0,1.1-2.9q0-3.9-4.5-3.9h-4Z" transform="translate(-375.949 -66.146)" fill="#111"/>
            <path id="Path_25" data-name="Path 25" d="M788.2,87.147l-8-20.8h2.9l6.6,17.9,6.6-17.9h2.9l-8,20.8h-3Z" transform="translate(-375.953 -66.146)" fill="#111"/>
            <path id="Path_26" data-name="Path 26" d="M814.2,68.55v-2.2H828v2.2h-5.5v18.6h-2.7V68.55Z" transform="translate(-375.957 -66.146)" fill="#111"/>
            <path id="Path_27" data-name="Path 27" d="M846.9,86.65a1.845,1.845,0,0,1-1.2.5,1.656,1.656,0,0,1-1.2-.5,1.7,1.7,0,0,1,1.2-2.9,1.656,1.656,0,0,1,1.2.5,1.69,1.69,0,0,1,0,2.4Z" transform="translate(-375.962 -66.148)" fill="#111"/>
            <path id="Path_28" data-name="Path 28" d="M886.2,66.35h2.7v18.7h7.3v2.1H886.1V66.35h.1Z" transform="translate(-375.967 -66.146)" fill="#111"/>
            <path id="Path_29" data-name="Path 29" d="M911.2,68.55v-2.2H925v2.2h-5.5v18.6h-2.7V68.55Z" transform="translate(-375.97 -66.146)" fill="#111"/>
            <path id="Path_30" data-name="Path 30" d="M948.1,66.35c3.4,0,6,.9,8,2.8a10.328,10.328,0,0,1,2.9,7.7,9.942,9.942,0,0,1-2.9,7.6c-1.9,1.8-4.6,2.7-8,2.7h-6.6V66.35Zm-3.9,18.7h3.9a7.78,7.78,0,0,0,6-2.2,8.276,8.276,0,0,0,2.1-6,8.276,8.276,0,0,0-2.1-6,8.162,8.162,0,0,0-6-2.2h-3.9Z" transform="translate(-375.974 -66.146)" fill="#111"/>
            <path id="Path_31" data-name="Path 31" d="M977.8,86.65a1.845,1.845,0,0,1-1.2.5,1.656,1.656,0,0,1-1.2-.5,1.7,1.7,0,0,1,1.2-2.9,1.656,1.656,0,0,1,1.2.5,1.69,1.69,0,0,1,0,2.4Z" transform="translate(-375.979 -66.148)" fill="#111"/>
          </g>
        </g>
        <g id="WebCodeGenie" transform="translate(0 0)">
          <g id="Group_18" data-name="Group 18">
            <path id="Path_32" data-name="Path 32" d="M433.392-1.25h9.2l-15.5,52.093h-9.8l-11-39.495L394.6,50.843l-9.6.1L370.2-1.25h9.1l10.8,42.494L401.9-1.25h9.6l10.9,42.194Z" transform="translate(-370.2 6.85)" fill="#006bc0"/>
            <path id="Path_33" data-name="Path 33" d="M468.6,51.544a19.965,19.965,0,0,1-14.7-5.8c-3.8-3.9-5.6-9.1-5.6-15.5s1.9-11.6,5.7-15.5,8.7-5.8,14.8-5.8c6,0,11,1.9,14.7,5.6s5.6,8.6,5.6,14.6a24.145,24.145,0,0,1-.3,4H457a11.747,11.747,0,0,0,3.5,8.2,11.187,11.187,0,0,0,8,3c4.7,0,8-1.9,9.9-5.8h9.3a18.2,18.2,0,0,1-6.9,9.3C477.6,50.345,473.5,51.544,468.6,51.544Zm8.2-32.4a11.6,11.6,0,0,0-8.1-3,10.945,10.945,0,0,0-7.9,3,12.306,12.306,0,0,0-3.7,8.1h23a10.4,10.4,0,0,0-3.3-8.1Z" transform="translate(-370.21 6.849)" fill="#006bc0"/>
            <path id="Path_34" data-name="Path 34" d="M522.1,8.948a18.351,18.351,0,0,1,13.9,5.9c3.7,3.9,5.6,9,5.6,15.3s-1.9,11.4-5.6,15.5a18.241,18.241,0,0,1-13.9,6,16.246,16.246,0,0,1-8.6-2.3,17.241,17.241,0,0,1-5.9-6.1v7.7H499V-4.55h8.6v21.5a16.943,16.943,0,0,1,5.8-5.8,17.056,17.056,0,0,1,8.7-2.2Zm7,31.4a14.131,14.131,0,0,0,3.8-10.2c0-4.2-1.2-7.6-3.7-10.1a12.4,12.4,0,0,0-8.9-3.7,12.262,12.262,0,0,0-8.9,3.8c-2.5,2.5-3.7,5.9-3.7,10.1,0,4.3,1.2,7.6,3.7,10.2a12.043,12.043,0,0,0,8.8,3.8A12.592,12.592,0,0,0,529.1,40.344Z" transform="translate(-370.217 6.851)" fill="#006bc0"/>
            <path id="Path_35" data-name="Path 35" d="M556.5,43.844c-5.2-5-7.8-11.4-7.8-19.1s2.6-14.1,7.8-19.1a26.333,26.333,0,0,1,19-7.5,27.781,27.781,0,0,1,14.9,4.1,23.045,23.045,0,0,1,9.4,11.6h-10.3c-2.8-5.3-7.5-7.9-14-7.9-5.3,0-9.6,1.7-12.9,5.2s-5,8-5,13.7,1.7,10.2,5,13.7,7.6,5.2,12.9,5.2c6.5,0,11.2-2.6,14-7.9h10.3a23.568,23.568,0,0,1-9.4,11.6,27.472,27.472,0,0,1-14.9,4A26.838,26.838,0,0,1,556.5,43.844Z" transform="translate(-370.223 6.851)" fill="#04427d"/>
            <path id="Path_36" data-name="Path 36" d="M629.4,51.544a20.271,20.271,0,0,1-14.9-5.9c-3.9-3.9-5.9-9.1-5.9-15.4s2-11.5,6.1-15.5a22.27,22.27,0,0,1,30.2,0c4,3.9,6.1,9.1,6.1,15.4,0,6.4-2.1,11.5-6.2,15.5a21.682,21.682,0,0,1-15.4,5.9Zm8.9-10.9c2.5-2.5,3.8-6,3.8-10.4s-1.2-7.9-3.7-10.4a11.786,11.786,0,0,0-8.8-3.7,11.272,11.272,0,0,0-8.7,3.7c-2.4,2.5-3.5,6-3.5,10.4s1.2,7.9,3.5,10.4a11.208,11.208,0,0,0,8.6,3.7,12.1,12.1,0,0,0,8.8-3.7Z" transform="translate(-370.231 6.849)" fill="#04427d"/>
            <path id="Path_37" data-name="Path 37" d="M663.7,45.543c-3.8-4-5.6-9.2-5.6-15.5s1.9-11.4,5.6-15.3a18.568,18.568,0,0,1,14-5.9,16.154,16.154,0,0,1,14.4,8V-4.65h8.7V50.843h-8.7v-7.7a15.964,15.964,0,0,1-14.4,8.4,18.3,18.3,0,0,1-14-6Zm24.6-5.2c2.5-2.5,3.7-5.9,3.7-10.2,0-4.2-1.2-7.6-3.7-10.1a12.042,12.042,0,0,0-8.8-3.8,11.787,11.787,0,0,0-8.8,3.7c-2.5,2.5-3.7,5.8-3.7,10.1s1.2,7.7,3.7,10.2a11.981,11.981,0,0,0,17.6.1Z" transform="translate(-370.238 6.851)" fill="#04427d"/>
            <path id="Path_38" data-name="Path 38" d="M730.9,51.544a19.965,19.965,0,0,1-14.7-5.8c-3.8-3.9-5.6-9.1-5.6-15.5s1.9-11.6,5.7-15.5,8.7-5.8,14.8-5.8c6,0,11,1.9,14.7,5.6s5.6,8.6,5.6,14.6a24.142,24.142,0,0,1-.3,4H719.3a11.749,11.749,0,0,0,3.5,8.2,11.186,11.186,0,0,0,8,3c4.7,0,8-1.9,9.9-5.8h9.3a18.2,18.2,0,0,1-6.9,9.3C739.9,50.345,735.8,51.544,730.9,51.544Zm8.2-32.4a11.6,11.6,0,0,0-8.1-3,10.947,10.947,0,0,0-7.9,3,12.305,12.305,0,0,0-3.7,8.1h23a10.079,10.079,0,0,0-3.3-8.1Z" transform="translate(-370.245 6.849)" fill="#04427d"/>
            <path id="Path_39" data-name="Path 39" d="M784.8,51.343a25.673,25.673,0,0,1-18.5-7.5c-5.2-5-7.8-11.4-7.8-19.1s2.6-14.1,7.8-19.1a26.333,26.333,0,0,1,19-7.5,27.78,27.78,0,0,1,14.9,4.1,23.045,23.045,0,0,1,9.4,11.6h-10.3c-2.8-5.3-7.5-7.9-14-7.9-5.3,0-9.6,1.7-12.9,5.2s-5,8-5,13.7,1.7,10.2,5,13.7a16.452,16.452,0,0,0,12.5,5.2c5,0,8.9-1.3,11.9-3.9s4.7-6.2,5.3-10.7H782.3v-6.7h28.8v6.7a25.188,25.188,0,0,1-8.4,15.9C797.895,49.243,791.9,51.343,784.8,51.343Z" transform="translate(-370.251 6.851)" fill="#ff8727"/>
            <path id="Path_40" data-name="Path 40" d="M838.6,51.544a19.965,19.965,0,0,1-14.7-5.8c-3.8-3.9-5.6-9.1-5.6-15.5s1.9-11.6,5.7-15.5,8.7-5.8,14.8-5.8c6,0,11,1.9,14.7,5.6s5.6,8.6,5.6,14.6a24.135,24.135,0,0,1-.3,4H827a11.747,11.747,0,0,0,3.5,8.2,11.185,11.185,0,0,0,8,3c4.7,0,8-1.9,9.9-5.8h9.3a18.2,18.2,0,0,1-6.9,9.3A19.656,19.656,0,0,1,838.6,51.544Zm8.2-32.4a11.6,11.6,0,0,0-8.1-3,10.946,10.946,0,0,0-7.9,3,12.305,12.305,0,0,0-3.7,8.1h23a10.4,10.4,0,0,0-3.3-8.1Z" transform="translate(-370.259 6.849)" fill="#ff8727"/>
            <path id="Path_41" data-name="Path 41" d="M877.7,9.55v6.5c2.8-4.8,7.2-7.2,13.3-7.2a15.675,15.675,0,0,1,11.6,4.7c3,3.1,4.6,7.4,4.6,13v24.4h-8.5v-23.1c0-3.7-.9-6.5-2.8-8.5a9.94,9.94,0,0,0-7.6-3,9.793,9.793,0,0,0-7.6,3c-1.9,2-2.8,4.8-2.8,8.5v23.1h-8.6V9.65h8.4v-.1Z" transform="translate(-370.266 6.849)" fill="#ff8727"/>
            <path id="Path_42" data-name="Path 42" d="M929.2-1.351a4.986,4.986,0,0,1-1.6,3.9,5.52,5.52,0,0,1-3.9,1.6,5.283,5.283,0,0,1-3.9-1.6,4.986,4.986,0,0,1-1.6-3.9,5.283,5.283,0,0,1,1.6-3.9,5.521,5.521,0,0,1,3.9-1.6,5.284,5.284,0,0,1,3.9,1.6,4.987,4.987,0,0,1,1.6,3.9Zm-9.8,52.293V9.648H928V50.942h-8.6Z" transform="translate(-370.272 6.851)" fill="#ff8727"/>
            <path id="Path_43" data-name="Path 43" d="M958.3,51.544a19.965,19.965,0,0,1-14.7-5.8c-3.8-3.9-5.6-9.1-5.6-15.5s1.9-11.6,5.7-15.5,8.7-5.8,14.8-5.8c6,0,11,1.9,14.7,5.6s5.6,8.6,5.6,14.6a24.162,24.162,0,0,1-.3,4H946.7a11.749,11.749,0,0,0,3.5,8.2,11.186,11.186,0,0,0,8,3c4.7,0,8-1.9,9.9-5.8h9.3a18.2,18.2,0,0,1-6.9,9.3C967.3,50.345,963.2,51.544,958.3,51.544Zm8.2-32.4a11.6,11.6,0,0,0-8.1-3,10.946,10.946,0,0,0-7.9,3,12.3,12.3,0,0,0-3.7,8.1h23a10.4,10.4,0,0,0-3.3-8.1Z" transform="translate(-370.275 6.849)" fill="#ff8727"/>
          </g>
        </g>
      </g>
    </g>
  </g>
</svg>
